# xmcd
#
# Track frame offsets: 
#        150
#        17242
#        36497
#        49350
#        62280
#        76142
#        95812
#        110505
#        129585
#        146177
#        159970
#        172992
#        190565
#        209732
#        228325
#        247325
#        261392
#        279185
#
# Disc length: 3928 seconds
#
# Revision: 0
# Processed by: cddbd v1.5.2PL0 Copyright (c) Steve Scherf et al.
# Submitted via: ExactAudioCopyFreeDBPlugin 1.0
#
DISCID=070f5612
DTITLE=The Radios - The Best Of
DYEAR=1997
DGENRE=Pop
TTITLE0=She Goes Nana
TTITLE1=Gimme Love
TTITLE2=I'm Into Folk
TTITLE3=Swinging In The Pool
TTITLE4=Lucky Day (Live)
TTITLE5=Non, Non, Rien N'a Changé (Live)
TTITLE6=Tears In The Morning
TTITLE7=Dreaming Wild
TTITLE8=S.O.S. To An Angel
TTITLE9=Walking The Thin Line
TTITLE10=Oh No! (Live)
TTITLE11=Teardrops
TTITLE12=Cinderella Sometimes
TTITLE13=Move It Right Now
TTITLE14=Because She Said So
TTITLE15=Devil In My Cheekbone
TTITLE16=If The Sun
TTITLE17=She's My Lover ... (Live)
EXTD=
EXTT0=
EXTT1=
EXTT2=
EXTT3=
EXTT4=
EXTT5=
EXTT6=
EXTT7=
EXTT8=
EXTT9=
EXTT10=
EXTT11=
EXTT12=
EXTT13=
EXTT14=
EXTT15=
EXTT16=
EXTT17=
PLAYORDER=
